<svg xmlns="http://www.w3.org/2000/svg" viewBox="0 0 1850 1030" width="1850" height="1030" font-family="Segoe UI,Calibri,Arial,sans-serif">
<rect width="1850" height="1030" fill="#ffffff"/>
<path d="M380,112 L460,112 L460,136 L550,136" fill="none" stroke="#41566b" stroke-width="2.2" stroke-linejoin="miter"/>
<line x1="391" y1="103" x2="391" y2="121" stroke="#41566b" stroke-width="2.2" stroke-linecap="round"/>
<path d="M550,136 L537,127 M550,136 L537,136 M550,136 L537,145" fill="none" stroke="#41566b" stroke-width="2.2" stroke-linecap="round"/>
<path d="M850,112 L880,112 L880,126 L1020,126" fill="none" stroke="#41566b" stroke-width="2.2" stroke-linejoin="miter"/>
<line x1="861" y1="103" x2="861" y2="121" stroke="#41566b" stroke-width="2.2" stroke-linecap="round"/>
<path d="M1020,126 L1007,117 M1020,126 L1007,126 M1020,126 L1007,135" fill="none" stroke="#41566b" stroke-width="2.2" stroke-linecap="round"/>
<path d="M850,112 L910,112 L910,316 L1020,316" fill="none" stroke="#41566b" stroke-width="2.2" stroke-linejoin="miter"/>
<line x1="861" y1="103" x2="861" y2="121" stroke="#41566b" stroke-width="2.2" stroke-linecap="round"/>
<path d="M1020,316 L1007,307 M1020,316 L1007,316 M1020,316 L1007,325" fill="none" stroke="#41566b" stroke-width="2.2" stroke-linecap="round"/>
<path d="M1320,102 L1350,102 L1350,122 L1490,122" fill="none" stroke="#41566b" stroke-width="2.2" stroke-linejoin="miter"/>
<line x1="1331" y1="93" x2="1331" y2="111" stroke="#41566b" stroke-width="2.2" stroke-linecap="round"/>
<path d="M1490,122 L1477,113 M1490,122 L1477,122 M1490,122 L1477,131" fill="none" stroke="#41566b" stroke-width="2.2" stroke-linecap="round"/>
<path d="M1320,292 L1380,292 L1380,146 L1490,146" fill="none" stroke="#41566b" stroke-width="2.2" stroke-linejoin="miter"/>
<line x1="1331" y1="283" x2="1331" y2="301" stroke="#41566b" stroke-width="2.2" stroke-linecap="round"/>
<path d="M1490,146 L1477,137 M1490,146 L1477,146 M1490,146 L1477,155" fill="none" stroke="#41566b" stroke-width="2.2" stroke-linecap="round"/>
<path d="M550,112 L500,112 L500,436 L550,436" fill="none" stroke="#41566b" stroke-width="2.2" stroke-linejoin="miter"/>
<line x1="539" y1="103" x2="539" y2="121" stroke="#41566b" stroke-width="2.2" stroke-linecap="round"/>
<path d="M550,436 L537,427 M550,436 L537,436 M550,436 L537,445" fill="none" stroke="#41566b" stroke-width="2.2" stroke-linecap="round"/>
<path d="M380,472 L480,472 L480,460 L550,460" fill="none" stroke="#41566b" stroke-width="2.2" stroke-linejoin="miter"/>
<line x1="391" y1="463" x2="391" y2="481" stroke="#41566b" stroke-width="2.2" stroke-linecap="round"/>
<path d="M550,460 L537,451 M550,460 L537,460 M550,460 L537,469" fill="none" stroke="#41566b" stroke-width="2.2" stroke-linecap="round"/>
<path d="M380,112 L440,112 L440,716 L550,716" fill="none" stroke="#41566b" stroke-width="2.2" stroke-linejoin="miter"/>
<line x1="391" y1="103" x2="391" y2="121" stroke="#41566b" stroke-width="2.2" stroke-linecap="round"/>
<path d="M550,716 L537,707 M550,716 L537,716 M550,716 L537,725" fill="none" stroke="#41566b" stroke-width="2.2" stroke-linecap="round"/>
<path d="M850,112 L940,112 L940,740 L850,740" fill="none" stroke="#41566b" stroke-width="2.2" stroke-linejoin="miter"/>
<line x1="861" y1="103" x2="861" y2="121" stroke="#41566b" stroke-width="2.2" stroke-linecap="round"/>
<path d="M850,740 L863,731 M850,740 L863,740 M850,740 L863,749" fill="none" stroke="#41566b" stroke-width="2.2" stroke-linecap="round"/>
<path d="M850,412 L970,412 L970,764 L850,764" fill="none" stroke="#41566b" stroke-width="2.2" stroke-linejoin="miter"/>
<line x1="861" y1="403" x2="861" y2="421" stroke="#41566b" stroke-width="2.2" stroke-linecap="round"/>
<path d="M850,764 L863,755 M850,764 L863,764 M850,764 L863,773" fill="none" stroke="#41566b" stroke-width="2.2" stroke-linecap="round"/>
<path d="M850,692 L1000,692 L1000,597 L1440,597 L1440,636 L1490,636" fill="none" stroke="#41566b" stroke-width="2.2" stroke-linejoin="miter"/>
<line x1="861" y1="683" x2="861" y2="701" stroke="#41566b" stroke-width="2.2" stroke-linecap="round"/>
<path d="M1490,636 L1477,627 M1490,636 L1477,636 M1490,636 L1477,645" fill="none" stroke="#41566b" stroke-width="2.2" stroke-linecap="round"/>
<path d="M1320,292 L1410,292 L1410,660 L1490,660" fill="none" stroke="#41566b" stroke-width="2.2" stroke-linejoin="miter"/>
<line x1="1331" y1="283" x2="1331" y2="301" stroke="#41566b" stroke-width="2.2" stroke-linecap="round"/>
<path d="M1490,660 L1477,651 M1490,660 L1477,660 M1490,660 L1477,669" fill="none" stroke="#41566b" stroke-width="2.2" stroke-linecap="round"/>
<path d="M80,112 L40,112 L40,960 L985,960 L985,696 L1020,696" fill="none" stroke="#41566b" stroke-width="2.2" stroke-linejoin="miter"/>
<line x1="69" y1="103" x2="69" y2="121" stroke="#41566b" stroke-width="2.2" stroke-linecap="round"/>
<path d="M1020,696 L1007,687 M1020,696 L1007,696 M1020,696 L1007,705" fill="none" stroke="#41566b" stroke-width="2.2" stroke-linecap="round"/>
<path d="M850,692 L880,692 L880,720 L1020,720" fill="none" stroke="#41566b" stroke-width="2.2" stroke-linejoin="miter"/>
<line x1="861" y1="683" x2="861" y2="701" stroke="#41566b" stroke-width="2.2" stroke-linecap="round"/>
<path d="M1020,720 L1007,711 M1020,720 L1007,720 M1020,720 L1007,729" fill="none" stroke="#41566b" stroke-width="2.2" stroke-linecap="round"/>
<path d="M550,112 L530,112 L530,696 L380,696" fill="none" stroke="#41566b" stroke-width="2.2" stroke-linejoin="miter"/>
<line x1="539" y1="103" x2="539" y2="121" stroke="#41566b" stroke-width="2.2" stroke-linecap="round"/>
<path d="M380,696 L393,687 M380,696 L393,696 M380,696 L393,705" fill="none" stroke="#41566b" stroke-width="2.2" stroke-linecap="round"/>
<path d="M380,472 L400,472 L400,720 L380,720" fill="none" stroke="#41566b" stroke-width="2.2" stroke-linejoin="miter"/>
<line x1="391" y1="463" x2="391" y2="481" stroke="#41566b" stroke-width="2.2" stroke-linecap="round"/>
<path d="M380,720 L393,711 M380,720 L393,720 M380,720 L393,729" fill="none" stroke="#41566b" stroke-width="2.2" stroke-linecap="round"/>
<rect x="477" y="123" width="57" height="26" rx="4" fill="#ffffff"/>
<text x="505" y="142" text-anchor="middle" font-size="17" font-weight="600" fill="#0b6b78">owns</text>
<rect x="899" y="113" width="103" height="26" rx="4" fill="#ffffff"/>
<text x="950" y="132" text-anchor="middle" font-size="17" font-weight="600" fill="#0b6b78">publishes</text>
<rect x="854" y="201" width="112" height="26" rx="4" fill="#ffffff"/>
<text x="910" y="220" text-anchor="middle" font-size="17" font-weight="600" fill="#0b6b78">catalogues</text>
<rect x="1387" y="109" width="66" height="26" rx="4" fill="#ffffff"/>
<text x="1420" y="128" text-anchor="middle" font-size="17" font-weight="600" fill="#0b6b78">lists</text>
<rect x="1338" y="206" width="84" height="26" rx="4" fill="#ffffff"/>
<text x="1380" y="225" text-anchor="middle" font-size="17" font-weight="600" fill="#0b6b78">selects</text>
<rect x="449" y="261" width="103" height="26" rx="4" fill="#ffffff"/>
<text x="500" y="280" text-anchor="middle" font-size="17" font-weight="600" fill="#0b6b78">schedules</text>
<rect x="397" y="459" width="66" height="26" rx="4" fill="#ffffff"/>
<text x="430" y="478" text-anchor="middle" font-size="17" font-weight="600" fill="#0b6b78">hosts</text>
<rect x="457" y="703" width="75" height="26" rx="4" fill="#ffffff"/>
<text x="495" y="722" text-anchor="middle" font-size="17" font-weight="600" fill="#0b6b78">places</text>
<rect x="898" y="413" width="84" height="26" rx="4" fill="#ffffff"/>
<text x="940" y="432" text-anchor="middle" font-size="17" font-weight="600" fill="#0b6b78">fulfils</text>
<rect x="872" y="751" width="75" height="26" rx="4" fill="#ffffff"/>
<text x="910" y="770" text-anchor="middle" font-size="17" font-weight="600" fill="#0b6b78">serves</text>
<rect x="1173" y="584" width="94" height="26" rx="4" fill="#ffffff"/>
<text x="1220" y="603" text-anchor="middle" font-size="17" font-weight="600" fill="#0b6b78">contains</text>
<rect x="1354" y="463" width="112" height="26" rx="4" fill="#ffffff"/>
<text x="1410" y="482" text-anchor="middle" font-size="17" font-weight="600" fill="#0b6b78">ordered as</text>
<rect x="466" y="947" width="94" height="26" rx="4" fill="#ffffff"/>
<text x="512" y="966" text-anchor="middle" font-size="17" font-weight="600" fill="#0b6b78">receives</text>
<rect x="903" y="707" width="94" height="26" rx="4" fill="#ffffff"/>
<text x="950" y="726" text-anchor="middle" font-size="17" font-weight="600" fill="#0b6b78">triggers</text>
<rect x="488" y="298" width="84" height="26" rx="4" fill="#ffffff"/>
<text x="530" y="317" text-anchor="middle" font-size="17" font-weight="600" fill="#0b6b78">informs</text>
<rect x="362" y="583" width="75" height="26" rx="4" fill="#ffffff"/>
<text x="400" y="602" text-anchor="middle" font-size="17" font-weight="600" fill="#0b6b78">scopes</text>
<rect x="80" y="60" width="300" height="242" rx="6" fill="#ffffff" stroke="#41566b" stroke-width="2.4"/>
<path d="M83,63 h294 v34 h-294 Z" fill="#12303f"/>
<path d="M80,100 L380,100" stroke="#41566b" stroke-width="2.4"/>
<text x="230" y="88" text-anchor="middle" font-size="21" font-weight="700" fill="#ffffff" letter-spacing="0.6">USERS</text>
<text x="94" y="117" font-size="15" font-weight="700" fill="#0b6b78">PK</text>
<text x="142" y="117" font-size="17" font-weight="700" fill="#16202b" text-decoration="underline">user_id</text>
<rect x="82" y="124" width="296" height="24" fill="#f2f6f8"/>
<text x="142" y="141" font-size="17" font-weight="400" fill="#16202b">name</text>
<text x="94" y="165" font-size="15" font-weight="700" fill="#0b6b78">UK</text>
<text x="142" y="165" font-size="17" font-weight="400" fill="#16202b">email</text>
<rect x="82" y="172" width="296" height="24" fill="#f2f6f8"/>
<text x="94" y="189" font-size="15" font-weight="700" fill="#0b6b78">UK</text>
<text x="142" y="189" font-size="17" font-weight="400" fill="#16202b">phone</text>
<text x="142" y="213" font-size="17" font-weight="400" fill="#16202b">password_hash</text>
<rect x="82" y="220" width="296" height="24" fill="#f2f6f8"/>
<text x="142" y="237" font-size="17" font-weight="400" fill="#16202b">role</text>
<text x="142" y="261" font-size="17" font-weight="400" fill="#16202b">status</text>
<rect x="82" y="268" width="296" height="24" fill="#f2f6f8"/>
<text x="142" y="285" font-size="17" font-weight="400" fill="#16202b">created_at</text>
<rect x="80" y="420" width="300" height="146" rx="6" fill="#ffffff" stroke="#41566b" stroke-width="2.4"/>
<path d="M83,423 h294 v34 h-294 Z" fill="#12303f"/>
<path d="M80,460 L380,460" stroke="#41566b" stroke-width="2.4"/>
<text x="230" y="448" text-anchor="middle" font-size="21" font-weight="700" fill="#ffffff" letter-spacing="0.6">STATION</text>
<text x="94" y="477" font-size="15" font-weight="700" fill="#0b6b78">PK</text>
<text x="142" y="477" font-size="17" font-weight="700" fill="#16202b" text-decoration="underline">station_id</text>
<rect x="82" y="484" width="296" height="24" fill="#f2f6f8"/>
<text x="142" y="501" font-size="17" font-weight="400" fill="#16202b">name</text>
<text x="142" y="525" font-size="17" font-weight="400" fill="#16202b">latitude</text>
<rect x="82" y="532" width="296" height="24" fill="#f2f6f8"/>
<text x="142" y="549" font-size="17" font-weight="400" fill="#16202b">longitude</text>
<rect x="80" y="620" width="300" height="242" rx="6" fill="#ffffff" stroke="#41566b" stroke-width="2.4"/>
<path d="M83,623 h294 v34 h-294 Z" fill="#12303f"/>
<path d="M80,660 L380,660" stroke="#41566b" stroke-width="2.4"/>
<text x="230" y="648" text-anchor="middle" font-size="21" font-weight="700" fill="#ffffff" letter-spacing="0.6">DEMAND_INSIGHT</text>
<text x="94" y="677" font-size="15" font-weight="700" fill="#0b6b78">PK</text>
<text x="142" y="677" font-size="17" font-weight="700" fill="#16202b" text-decoration="underline">insight_id</text>
<rect x="82" y="684" width="296" height="24" fill="#f2f6f8"/>
<text x="94" y="701" font-size="15" font-weight="700" fill="#0b6b78">FK</text>
<text x="142" y="701" font-size="17" font-weight="400" fill="#16202b">truck_id</text>
<text x="94" y="725" font-size="15" font-weight="700" fill="#0b6b78">FK</text>
<text x="142" y="725" font-size="17" font-weight="400" fill="#16202b">station_id</text>
<rect x="82" y="732" width="296" height="24" fill="#f2f6f8"/>
<text x="142" y="749" font-size="17" font-weight="400" fill="#16202b">period_start</text>
<text x="142" y="773" font-size="17" font-weight="400" fill="#16202b">period_end</text>
<rect x="82" y="780" width="296" height="24" fill="#f2f6f8"/>
<text x="142" y="797" font-size="17" font-weight="400" fill="#16202b">metric</text>
<text x="142" y="821" font-size="17" font-weight="400" fill="#16202b">suggestion</text>
<rect x="82" y="828" width="296" height="24" fill="#f2f6f8"/>
<text x="142" y="845" font-size="17" font-weight="400" fill="#16202b">created_at</text>
<rect x="550" y="60" width="300" height="194" rx="6" fill="#ffffff" stroke="#41566b" stroke-width="2.4"/>
<path d="M553,63 h294 v34 h-294 Z" fill="#12303f"/>
<path d="M550,100 L850,100" stroke="#41566b" stroke-width="2.4"/>
<text x="700" y="88" text-anchor="middle" font-size="21" font-weight="700" fill="#ffffff" letter-spacing="0.6">TRUCK</text>
<text x="564" y="117" font-size="15" font-weight="700" fill="#0b6b78">PK</text>
<text x="612" y="117" font-size="17" font-weight="700" fill="#16202b" text-decoration="underline">truck_id</text>
<rect x="552" y="124" width="296" height="24" fill="#f2f6f8"/>
<text x="564" y="141" font-size="15" font-weight="700" fill="#0b6b78">FK</text>
<text x="612" y="141" font-size="17" font-weight="400" fill="#16202b">owner_id</text>
<text x="612" y="165" font-size="17" font-weight="400" fill="#16202b">name</text>
<rect x="552" y="172" width="296" height="24" fill="#f2f6f8"/>
<text x="612" y="189" font-size="17" font-weight="400" fill="#16202b">tagline</text>
<text x="612" y="213" font-size="17" font-weight="400" fill="#16202b">status</text>
<rect x="552" y="220" width="296" height="24" fill="#f2f6f8"/>
<text x="612" y="237" font-size="17" font-weight="400" fill="#16202b">created_at</text>
<rect x="550" y="360" width="300" height="218" rx="6" fill="#ffffff" stroke="#41566b" stroke-width="2.4"/>
<path d="M553,363 h294 v34 h-294 Z" fill="#12303f"/>
<path d="M550,400 L850,400" stroke="#41566b" stroke-width="2.4"/>
<text x="700" y="388" text-anchor="middle" font-size="21" font-weight="700" fill="#ffffff" letter-spacing="0.6">TRUCK_SCHEDULE</text>
<text x="564" y="417" font-size="15" font-weight="700" fill="#0b6b78">PK</text>
<text x="612" y="417" font-size="17" font-weight="700" fill="#16202b" text-decoration="underline">schedule_id</text>
<rect x="552" y="424" width="296" height="24" fill="#f2f6f8"/>
<text x="564" y="441" font-size="15" font-weight="700" fill="#0b6b78">FK</text>
<text x="612" y="441" font-size="17" font-weight="400" fill="#16202b">truck_id</text>
<text x="564" y="465" font-size="15" font-weight="700" fill="#0b6b78">FK</text>
<text x="612" y="465" font-size="17" font-weight="400" fill="#16202b">station_id</text>
<rect x="552" y="472" width="296" height="24" fill="#f2f6f8"/>
<text x="612" y="489" font-size="17" font-weight="400" fill="#16202b">service_date</text>
<text x="612" y="513" font-size="17" font-weight="400" fill="#16202b">arrival_time</text>
<rect x="552" y="520" width="296" height="24" fill="#f2f6f8"/>
<text x="612" y="537" font-size="17" font-weight="400" fill="#16202b">departure_time</text>
<text x="612" y="561" font-size="17" font-weight="400" fill="#16202b">status</text>
<rect x="550" y="640" width="300" height="290" rx="6" fill="#ffffff" stroke="#41566b" stroke-width="2.4"/>
<path d="M553,643 h294 v34 h-294 Z" fill="#12303f"/>
<path d="M550,680 L850,680" stroke="#41566b" stroke-width="2.4"/>
<text x="700" y="668" text-anchor="middle" font-size="21" font-weight="700" fill="#ffffff" letter-spacing="0.6">ORDERS</text>
<text x="564" y="697" font-size="15" font-weight="700" fill="#0b6b78">PK</text>
<text x="612" y="697" font-size="17" font-weight="700" fill="#16202b" text-decoration="underline">order_id</text>
<rect x="552" y="704" width="296" height="24" fill="#f2f6f8"/>
<text x="564" y="721" font-size="15" font-weight="700" fill="#0b6b78">FK</text>
<text x="612" y="721" font-size="17" font-weight="400" fill="#16202b">user_id</text>
<text x="564" y="745" font-size="15" font-weight="700" fill="#0b6b78">FK</text>
<text x="612" y="745" font-size="17" font-weight="400" fill="#16202b">truck_id</text>
<rect x="552" y="752" width="296" height="24" fill="#f2f6f8"/>
<text x="564" y="769" font-size="15" font-weight="700" fill="#0b6b78">FK</text>
<text x="612" y="769" font-size="17" font-weight="400" fill="#16202b">schedule_id</text>
<text x="612" y="793" font-size="17" font-weight="400" fill="#16202b">order_type</text>
<rect x="552" y="800" width="296" height="24" fill="#f2f6f8"/>
<text x="612" y="817" font-size="17" font-weight="400" fill="#16202b">status</text>
<text x="612" y="841" font-size="17" font-weight="400" fill="#16202b">scheduled_time</text>
<rect x="552" y="848" width="296" height="24" fill="#f2f6f8"/>
<text x="612" y="865" font-size="17" font-weight="400" fill="#16202b">total_amount</text>
<text x="612" y="889" font-size="17" font-weight="400" fill="#16202b">reject_reason</text>
<rect x="552" y="896" width="296" height="24" fill="#f2f6f8"/>
<text x="612" y="913" font-size="17" font-weight="400" fill="#16202b">created_at</text>
<rect x="1020" y="50" width="300" height="146" rx="6" fill="#ffffff" stroke="#41566b" stroke-width="2.4"/>
<path d="M1023,53 h294 v34 h-294 Z" fill="#12303f"/>
<path d="M1020,90 L1320,90" stroke="#41566b" stroke-width="2.4"/>
<text x="1170" y="78" text-anchor="middle" font-size="21" font-weight="700" fill="#ffffff" letter-spacing="0.6">MENU</text>
<text x="1034" y="107" font-size="15" font-weight="700" fill="#0b6b78">PK</text>
<text x="1082" y="107" font-size="17" font-weight="700" fill="#16202b" text-decoration="underline">menu_id</text>
<rect x="1022" y="114" width="296" height="24" fill="#f2f6f8"/>
<text x="1034" y="131" font-size="15" font-weight="700" fill="#0b6b78">FK</text>
<text x="1082" y="131" font-size="17" font-weight="400" fill="#16202b">truck_id</text>
<text x="1082" y="155" font-size="17" font-weight="400" fill="#16202b">menu_date</text>
<rect x="1022" y="162" width="296" height="24" fill="#f2f6f8"/>
<text x="1082" y="179" font-size="17" font-weight="400" fill="#16202b">status</text>
<rect x="1020" y="240" width="300" height="314" rx="6" fill="#ffffff" stroke="#41566b" stroke-width="2.4"/>
<path d="M1023,243 h294 v34 h-294 Z" fill="#12303f"/>
<path d="M1020,280 L1320,280" stroke="#41566b" stroke-width="2.4"/>
<text x="1170" y="268" text-anchor="middle" font-size="21" font-weight="700" fill="#ffffff" letter-spacing="0.6">MENU_ITEM</text>
<text x="1034" y="297" font-size="15" font-weight="700" fill="#0b6b78">PK</text>
<text x="1082" y="297" font-size="17" font-weight="700" fill="#16202b" text-decoration="underline">item_id</text>
<rect x="1022" y="304" width="296" height="24" fill="#f2f6f8"/>
<text x="1034" y="321" font-size="15" font-weight="700" fill="#0b6b78">FK</text>
<text x="1082" y="321" font-size="17" font-weight="400" fill="#16202b">truck_id</text>
<text x="1082" y="345" font-size="17" font-weight="400" fill="#16202b">name</text>
<rect x="1022" y="352" width="296" height="24" fill="#f2f6f8"/>
<text x="1082" y="369" font-size="17" font-weight="400" fill="#16202b">description</text>
<text x="1082" y="393" font-size="17" font-weight="400" fill="#16202b">price</text>
<rect x="1022" y="400" width="296" height="24" fill="#f2f6f8"/>
<text x="1082" y="417" font-size="17" font-weight="400" fill="#16202b">category_tag</text>
<text x="1082" y="441" font-size="17" font-weight="400" fill="#16202b">food_type</text>
<rect x="1022" y="448" width="296" height="24" fill="#f2f6f8"/>
<text x="1082" y="465" font-size="17" font-weight="400" fill="#16202b">available</text>
<text x="1082" y="489" font-size="17" font-weight="400" fill="#16202b">stock_quantity</text>
<rect x="1022" y="496" width="296" height="24" fill="#f2f6f8"/>
<text x="1082" y="513" font-size="17" font-weight="400" fill="#16202b">available_from</text>
<text x="1082" y="537" font-size="17" font-weight="400" fill="#16202b">created_at</text>
<rect x="1020" y="620" width="300" height="194" rx="6" fill="#ffffff" stroke="#41566b" stroke-width="2.4"/>
<path d="M1023,623 h294 v34 h-294 Z" fill="#12303f"/>
<path d="M1020,660 L1320,660" stroke="#41566b" stroke-width="2.4"/>
<text x="1170" y="648" text-anchor="middle" font-size="21" font-weight="700" fill="#ffffff" letter-spacing="0.6">NOTIFICATION</text>
<text x="1034" y="677" font-size="15" font-weight="700" fill="#0b6b78">PK</text>
<text x="1082" y="677" font-size="17" font-weight="700" fill="#16202b" text-decoration="underline">notification_id</text>
<rect x="1022" y="684" width="296" height="24" fill="#f2f6f8"/>
<text x="1034" y="701" font-size="15" font-weight="700" fill="#0b6b78">FK</text>
<text x="1082" y="701" font-size="17" font-weight="400" fill="#16202b">user_id</text>
<text x="1034" y="725" font-size="15" font-weight="700" fill="#0b6b78">FK</text>
<text x="1082" y="725" font-size="17" font-weight="400" fill="#16202b">order_id</text>
<rect x="1022" y="732" width="296" height="24" fill="#f2f6f8"/>
<text x="1082" y="749" font-size="17" font-weight="400" fill="#16202b">message</text>
<text x="1082" y="773" font-size="17" font-weight="400" fill="#16202b">is_read</text>
<rect x="1022" y="780" width="296" height="24" fill="#f2f6f8"/>
<text x="1082" y="797" font-size="17" font-weight="400" fill="#16202b">created_at</text>
<rect x="1490" y="70" width="300" height="98" rx="6" fill="#ffffff" stroke="#41566b" stroke-width="2.4"/>
<path d="M1493,73 h294 v34 h-294 Z" fill="#12303f"/>
<path d="M1490,110 L1790,110" stroke="#41566b" stroke-width="2.4"/>
<text x="1640" y="98" text-anchor="middle" font-size="21" font-weight="700" fill="#ffffff" letter-spacing="0.6">MENU_SELECTION</text>
<text x="1504" y="127" font-size="15" font-weight="700" fill="#0b6b78">PF</text>
<text x="1552" y="127" font-size="17" font-weight="700" fill="#16202b" text-decoration="underline">menu_id</text>
<rect x="1492" y="134" width="296" height="24" fill="#f2f6f8"/>
<text x="1504" y="151" font-size="15" font-weight="700" fill="#0b6b78">PF</text>
<text x="1552" y="151" font-size="17" font-weight="700" fill="#16202b" text-decoration="underline">item_id</text>
<rect x="1490" y="560" width="300" height="170" rx="6" fill="#ffffff" stroke="#41566b" stroke-width="2.4"/>
<path d="M1493,563 h294 v34 h-294 Z" fill="#12303f"/>
<path d="M1490,600 L1790,600" stroke="#41566b" stroke-width="2.4"/>
<text x="1640" y="588" text-anchor="middle" font-size="21" font-weight="700" fill="#ffffff" letter-spacing="0.6">ORDER_ITEM</text>
<text x="1504" y="617" font-size="15" font-weight="700" fill="#0b6b78">PK</text>
<text x="1552" y="617" font-size="17" font-weight="700" fill="#16202b" text-decoration="underline">order_item_id</text>
<rect x="1492" y="624" width="296" height="24" fill="#f2f6f8"/>
<text x="1504" y="641" font-size="15" font-weight="700" fill="#0b6b78">FK</text>
<text x="1552" y="641" font-size="17" font-weight="400" fill="#16202b">order_id</text>
<text x="1504" y="665" font-size="15" font-weight="700" fill="#0b6b78">FK</text>
<text x="1552" y="665" font-size="17" font-weight="400" fill="#16202b">item_id</text>
<rect x="1492" y="672" width="296" height="24" fill="#f2f6f8"/>
<text x="1552" y="689" font-size="17" font-weight="400" fill="#16202b">quantity</text>
<text x="1552" y="713" font-size="17" font-weight="400" fill="#16202b">price_at_order</text>
<text x="925" y="1012" text-anchor="middle" font-size="17" fill="#5c6b7a">Bites-N-Wheels  -  Entity Relationship Diagram  -  11 entities, 16 relationships</text>
</svg>